<svg width="64" height="64" viewBox="0 0 64 64" fill="none" xmlns="http://www.w3.org/2000/svg">
<circle cx="32.0001" cy="32.2499" r="30.5" stroke="url(#paint0_linear_2019_47)" stroke-width="2"/>
<path d="M32.1663 50C41.8313 50 49.6663 42.165 49.6663 32.5C49.6663 22.835 41.8313 15 32.1663 15C22.5013 15 14.6663 22.835 14.6663 32.5C14.6663 42.165 22.5013 50 32.1663 50Z" stroke="url(#paint1_linear_2019_47)" stroke-width="2" stroke-linecap="round" stroke-linejoin="round"/>
<path d="M25.1663 36C25.1663 36 27.7913 39.5 32.1663 39.5C36.5413 39.5 39.1663 36 39.1663 36" stroke="url(#paint2_linear_2019_47)" stroke-width="2" stroke-linecap="round" stroke-linejoin="round"/>
<path d="M26.9163 27.25H26.9338" stroke="url(#paint3_linear_2019_47)" stroke-width="2" stroke-linecap="round" stroke-linejoin="round"/>
<path d="M37.4163 27.25H37.4338" stroke="url(#paint4_linear_2019_47)" stroke-width="2" stroke-linecap="round" stroke-linejoin="round"/>
<defs>
<linearGradient id="paint0_linear_2019_47" x1="0.500061" y1="0.749878" x2="65.3493" y2="2.71464" gradientUnits="userSpaceOnUse">
<stop stop-color="#ED1C24"/>
<stop offset="1" stop-color="#ED3F1C"/>
</linearGradient>
<linearGradient id="paint1_linear_2019_47" x1="14.6663" y1="15" x2="50.6937" y2="16.0915" gradientUnits="userSpaceOnUse">
<stop stop-color="#ED1C24"/>
<stop offset="1" stop-color="#ED3F1C"/>
</linearGradient>
<linearGradient id="paint2_linear_2019_47" x1="25.1663" y1="36" x2="39.3817" y2="37.7228" gradientUnits="userSpaceOnUse">
<stop stop-color="#ED1C24"/>
<stop offset="1" stop-color="#ED3F1C"/>
</linearGradient>
<linearGradient id="paint3_linear_2019_47" x1="26.9163" y1="27.25" x2="26.9344" y2="27.25" gradientUnits="userSpaceOnUse">
<stop stop-color="#ED1C24"/>
<stop offset="1" stop-color="#ED3F1C"/>
</linearGradient>
<linearGradient id="paint4_linear_2019_47" x1="37.4163" y1="27.25" x2="37.4344" y2="27.25" gradientUnits="userSpaceOnUse">
<stop stop-color="#ED1C24"/>
<stop offset="1" stop-color="#ED3F1C"/>
</linearGradient>
</defs>
</svg>
