<svg width="64" height="64" viewBox="0 0 64 64" fill="none" xmlns="http://www.w3.org/2000/svg">
<circle cx="32.0001" cy="31.7499" r="30.5" stroke="url(#paint0_linear_2001_2)" stroke-width="2"/>
<path d="M35.9774 22.7813C35.6567 23.1084 35.4771 23.5482 35.4771 24.0063C35.4771 24.4643 35.6567 24.9041 35.9774 25.2313L38.7774 28.0313C39.1045 28.3519 39.5443 28.5315 40.0024 28.5315C40.4604 28.5315 40.9002 28.3519 41.2274 28.0313L47.8249 21.4338C48.7048 23.3783 48.9713 25.5449 48.5887 27.6448C48.2061 29.7446 47.1926 31.678 45.6834 33.1872C44.1741 34.6965 42.2407 35.71 40.1409 36.0926C38.041 36.4751 35.8745 36.2087 33.9299 35.3288L21.8374 47.4212C21.1412 48.1174 20.1969 48.5086 19.2124 48.5086C18.2278 48.5086 17.2836 48.1174 16.5874 47.4212C15.8912 46.7251 15.5001 45.7808 15.5001 44.7962C15.5001 43.8117 15.8912 42.8674 16.5874 42.1713L28.6799 30.0788C27.7999 28.1342 27.5335 25.9676 27.9161 23.8677C28.2987 21.7679 29.3121 19.8345 30.8214 18.3253C32.3306 16.816 34.264 15.8025 36.3639 15.42C38.4637 15.0374 40.6303 15.3038 42.5749 16.1838L35.9949 22.7638L35.9774 22.7813Z" stroke="url(#paint1_linear_2001_2)" stroke-width="2" stroke-linecap="round" stroke-linejoin="round"/>
<defs>
<linearGradient id="paint0_linear_2001_2" x1="0.500061" y1="0.249878" x2="65.3493" y2="2.21464" gradientUnits="userSpaceOnUse">
<stop stop-color="#ED1C24"/>
<stop offset="1" stop-color="#ED3F1C"/>
</linearGradient>
<linearGradient id="paint1_linear_2001_2" x1="15.5001" y1="15.2499" x2="49.735" y2="16.2871" gradientUnits="userSpaceOnUse">
<stop stop-color="#ED1C24"/>
<stop offset="1" stop-color="#ED3F1C"/>
</linearGradient>
</defs>
</svg>
