<svg width="52" height="61" viewBox="0 0 52 61" fill="none" xmlns="http://www.w3.org/2000/svg">
<path d="M15.3795 36.3858C15.824 34.1869 15.9679 30.042 15.9679 30.042C15.9679 30.042 15.6795 22.7573 15.9796 16.194C16.279 9.62938 16.9142 6.71541 16.9142 6.71541C16.9142 6.71541 18.2006 0.235058 18.5449 0.2369C19.6573 0.241821 21.3144 11.6874 26.1776 12.2574C29.5244 12.6503 31.6741 6.9171 32.9654 3.23635C33.5495 1.56999 33.7248 0.2369 34.1638 0.2369C35.5713 0.2369 35.9722 18.324 35.9722 18.324L36.2483 34.6002C36.2483 34.6002 36.4512 44.1826 37.0839 49.8243C37.598 54.404 36.469 56.8199 36.469 58.3651C36.469 59.9097 34.9878 60.9999 32.7643 60.9999C30.5402 60.9999 29.9788 56.2161 27.5765 55.7303C25.1759 55.2452 22.3075 56.3065 22.3075 56.3065L17.3674 58.6947C17.3674 58.6947 14.4762 60.018 13.7445 59.847C13.0134 59.6767 12.7016 58.1388 12.3474 53.7122C12.1912 51.7636 12.0867 48.9351 12.7139 45.8152C13.5114 41.8479 15.1304 37.6168 15.3795 36.3858Z" fill="#EBEBEB"/>
<path d="M14.8477 18.0472V21.3411C14.8477 21.3411 9.92424 23.5259 7.0078 28.7199C5.98032 30.5498 3.49677 36.2511 4.85568 41.94C6.13589 47.2976 11.2352 52.713 11.2352 52.713L12.8468 59.577C12.8468 59.577 3.16473 53.6999 0.628296 44.0153C-3.59417 27.8922 14.8477 18.0472 14.8477 18.0472Z" fill="#0A0909"/>
<path d="M17.9784 19.2593C17.9784 19.2593 18.782 18.2847 19.9866 17.6778C20.6654 17.3359 22.2168 16.7425 23.2474 17.0691C24.1396 17.3513 24.5528 18.4858 24.7477 19.0908C25.3638 21.0037 25.5422 23.748 25.4216 25.7649C25.2482 28.6708 23.9859 31.377 22.2771 31.5547C18.5736 31.939 18.0153 25.359 17.5123 25.2902C17.0087 25.2213 16.5125 32.0546 16.5125 32.0546C16.5125 32.0546 15.3589 24.0339 15.7912 16.0256C16.2179 8.12606 18.3535 0.489098 18.5447 0.236992C18.8724 -0.194664 20.4379 6.17685 24.1556 11.2762C24.8203 12.1874 25.9486 12.3971 26.7855 12.394C27.6217 12.391 28.0368 12.0466 28.4162 11.6838C28.7949 11.321 30.4447 8.79998 32.009 5.5472C33.3224 2.81462 33.8819 0.000255585 34.1058 0.000255585C34.5958 0.000255585 35.8127 6.89504 36.0304 11.417C36.3784 14.1557 36.2044 32.64 36.2044 32.64C36.2044 32.64 35.6166 18.3007 34.4655 12.4598C34.1716 10.9712 32.8778 9.8662 32.6798 9.88895C31.7046 10.0033 28.1192 16.9092 28.1192 16.9092C28.1192 16.9092 27.5092 18.0664 26.1718 17.5241C24.8344 16.9817 20.8825 10.427 19.8692 10.6065C18.8564 10.7861 17.9784 19.2593 17.9784 19.2593Z" fill="#0A0909"/>
<path d="M36.0302 11.4166C35.8126 6.89467 34.5957 -0.000114441 34.1056 -0.000114441C33.8818 -0.000114441 33.3223 2.81425 32.0088 5.54683C30.4446 8.80023 28.7948 11.3213 28.416 11.6841C28.0366 12.0462 27.6216 12.3906 26.7853 12.3937C25.9485 12.3967 24.8201 12.1871 24.1554 11.2758C20.4378 6.17648 18.8723 -0.19442 18.5445 0.236618C18.3533 0.489342 16.2178 8.12569 15.7911 16.0252C15.3588 24.0336 16.5123 32.0542 16.5123 32.0542C16.5123 32.0542 17.0085 25.2209 17.5121 25.2898C17.5398 25.2941 17.5687 25.3212 17.597 25.363C17.5952 25.2006 17.5952 25.0383 17.6013 24.8741C17.6671 23.2213 18.0502 21.6429 17.9456 19.9777C17.9284 19.7029 17.9432 19.4489 17.9832 19.2122C18.0514 18.5715 18.8981 10.7789 19.869 10.6062C20.8824 10.4266 24.8343 16.982 26.1717 17.5237C27.5097 18.066 28.119 16.9088 28.119 16.9088C28.119 16.9088 31.7045 10.0036 32.6797 9.8892C32.8777 9.86583 34.172 10.9714 34.4653 12.4601C35.6164 18.3009 36.2043 32.6402 36.2043 32.6402C36.2043 32.6402 36.3783 14.1559 36.0302 11.4166Z" fill="#ED1C24"/>
<path d="M32.3211 24.7428C32.0475 25.7697 31.3686 26.4805 30.806 26.3305C30.2434 26.1798 30.0091 25.2261 30.284 24.1993C30.5576 23.173 31.2352 22.4622 31.7978 22.6122C32.3605 22.7623 32.5947 23.7166 32.3211 24.7428Z" fill="#0A0909"/>
<path d="M22.9545 23.8643C23.2158 24.8943 22.9699 25.8449 22.4054 25.9881C21.8409 26.1314 21.1719 25.4126 20.9106 24.3827C20.6493 23.3521 20.8952 22.4015 21.4597 22.2582C22.0242 22.1156 22.6932 22.8344 22.9545 23.8643Z" fill="white"/>
<path d="M26.5751 40.2512L29.074 36.4524C29.074 36.4524 28.3817 35.3326 26.5751 35.3197C24.5761 35.305 23.7761 36.6522 23.7761 36.6522L26.5751 40.2512Z" fill="#ED1C24"/>
<path d="M13.6453 59.8115C13.0845 59.5772 12.79 58.1427 12.4475 56.2783C11.9537 53.5925 12.1794 50.0894 12.228 49.314C12.4708 45.4722 14.6463 39.0515 14.6463 39.0515C14.6463 39.0515 15.0153 37.5714 16.0311 36.6651C16.654 36.1092 17.3371 36.0674 18.2933 36.6651C19.48 37.4067 19.3023 38.2478 19.2445 39.1179C19.1277 40.8925 17.2455 48.0314 17.2455 48.0314C17.2455 48.0314 15.8128 54.2123 16.6453 54.7122C17.4785 55.2121 19.4739 54.8628 21.7772 54.2455C24.08 53.6281 26.475 52.6794 28.241 52.5127C30.007 52.3461 31.4735 52.5465 31.4735 52.5465C31.4735 52.5465 30.3083 53.4037 29.7333 54.2984C29.1584 55.193 28.8079 56.0785 28.8079 56.0785C28.8079 56.0785 28.2748 54.7454 25.5754 55.0116C22.8767 55.2785 20.5444 56.678 20.5444 56.678C20.5444 56.678 14.8837 60.3292 13.6453 59.8115Z" fill="#ED1C24"/>
<path d="M29.2742 56.0451C29.2742 56.0451 29.7403 54.8454 30.6066 53.8794C31.473 52.9128 32.6063 52.713 32.6063 52.713C32.6063 52.713 33.5341 52.8033 34.2573 53.2787C35.0708 53.813 35.698 54.7513 35.8714 55.012C36.469 55.9116 36.7672 58.1105 36.469 58.5108C36.1714 58.9105 36.038 58.6774 36.038 58.6774L35.5713 56.711L35.6051 58.9437C35.6051 58.9437 35.6715 59.8432 34.7713 59.7098C33.8723 59.577 33.8754 58.8932 33.8127 58.4315C33.7174 57.7354 33.5723 56.9114 33.5723 56.9114H33.1056L33.1517 59.1374C33.1517 59.1374 33.3724 60.5768 32.3394 60.4434C31.3064 60.31 31.1109 59.2941 31.1109 59.2941C31.1109 59.2941 31.513 57.9986 30.8735 57.3443C30.234 56.6901 29.2742 56.0451 29.2742 56.0451Z" fill="#0A0909"/>
<path d="M17.0521 34.743C17.2913 34.6126 26.0775 41.1993 26.835 41.2651C27.5926 41.3303 35.6827 33.1129 35.9655 33.3951C36.2484 33.678 27.8127 42.5478 26.7913 42.5478C25.7694 42.5478 16.8129 34.8733 17.0521 34.743Z" fill="#ED1C24"/>
<path d="M37.218 15.8073V18.9445C37.218 18.9445 44.3619 21.3555 47.5827 28.4224C50.8041 35.4894 40.9584 51.4711 40.9584 51.4711C40.9584 51.4711 45.1827 47.2498 48.2338 41.7404C50.472 37.6999 52.0788 32.9653 50.9246 28.6955C48.1963 18.6032 37.218 15.8073 37.218 15.8073Z" fill="#0A0909"/>
</svg>
