<svg width="157" height="99" viewBox="0 0 157 99" fill="none" xmlns="http://www.w3.org/2000/svg">
<path d="M52.5779 63.0918C52.5779 64.0957 52.2737 65.3283 51.6652 66.7882C50.7218 69.1017 49.7628 71.4137 48.7896 73.7258C47.5726 76.9206 46.9641 79.2333 46.9641 80.6633C46.9641 81.7584 47.3745 82.3063 48.1968 82.3063C48.6528 82.3063 49.2384 82.0477 49.9531 81.5304C50.6677 81.0124 51.0866 80.7545 51.2085 80.7545C51.3303 80.7545 51.3909 80.8301 51.3909 80.9825C51.3909 81.591 50.9726 82.1239 50.1362 82.5807C49.299 83.0367 48.5616 83.2646 47.9225 83.2646C46.1882 83.2646 45.3211 82.2451 45.3211 80.2066C45.3211 78.8686 45.6859 77.0887 46.4162 74.8672C46.9941 73.2242 47.8312 71.1551 48.9264 68.6599C49.3524 67.8384 49.9003 66.5908 50.5701 64.9172C50.8437 64.0957 50.9805 63.4872 50.9805 63.0918C50.9805 62.7569 50.8736 62.5895 50.6613 62.5895C49.1087 62.5895 46.34 64.7654 42.3543 69.1166C39.463 72.2808 37.0597 75.232 35.1431 77.9708C34.5339 78.8536 34.0323 79.6131 33.6369 80.2522C33.4844 80.5871 33.2415 80.9519 32.9066 81.348C32.7848 81.378 32.6629 81.3936 32.5418 81.3936C31.6291 81.3936 31.1724 81.0281 31.1724 80.2978C31.1724 80.1461 31.2251 79.9936 31.332 79.8418C31.4389 79.6901 32.0089 78.5337 33.0434 76.3734C36.1164 69.983 37.6532 65.3896 37.6532 62.5895C37.6532 61.3112 37.2578 60.6728 36.4669 60.6728C35.1887 60.6728 33.0584 62.3009 30.0766 65.5563C26.6993 69.2691 23.5344 73.574 20.584 78.4724C20.2484 79.0509 19.9142 79.6131 19.5801 80.1617C19.0927 80.9213 18.6966 81.4236 18.3931 81.6672C17.6927 81.6672 17.3436 81.3324 17.3436 80.6633C17.3436 80.4503 17.4041 80.2672 17.526 80.1161C19.1989 78.0777 21.0093 74.8522 22.9573 70.4397C25.087 65.6931 26.1521 62.1947 26.1521 59.9425C26.1521 56.9002 24.4785 55.3783 21.1312 55.3783C19.3663 55.3783 17.236 55.82 14.7415 56.7021C13.0679 57.3113 11.3565 58.0872 9.60728 59.0298C7.85739 59.9732 6.20654 61.0376 4.65544 62.2247C2.34268 64.0201 1.1863 65.4957 1.1863 66.6521C1.1863 68.3564 2.84427 69.2071 6.16165 69.2071C6.82997 69.2071 7.81963 69.1088 9.12777 68.9107C10.4359 68.7134 11.4099 68.6143 12.049 68.6143C12.292 68.6143 12.4138 68.6756 12.4138 68.7967C12.4138 68.9185 12.3376 69.0247 12.1858 69.1166C11.1513 69.8462 9.43201 70.2117 7.02876 70.2117C5.29455 70.2117 3.80258 69.9681 2.55571 69.4814C0.852136 68.8124 -7.62939e-06 67.7322 -7.62939e-06 66.241C-7.62939e-06 64.6593 1.1407 62.955 3.42282 61.1295C4.97464 59.882 6.81501 58.7413 8.94538 57.706C10.7402 56.8546 12.5812 56.1392 14.4679 55.5614C17.1455 54.7698 19.5345 54.3744 21.6335 54.3744C26.0759 54.3744 28.2968 56.063 28.2968 59.4402C28.2968 62.1791 27.2016 65.6632 25.0107 69.8918C26.7457 67.8234 28.4799 65.7387 30.2141 63.6397C32.8304 60.8096 34.8845 59.3946 36.3757 59.3946C38.2012 59.3946 39.1139 60.764 39.1139 63.5029C39.1139 65.8755 38.1855 69.3147 36.3294 73.817C38.338 71.5662 40.5438 69.2841 42.9478 66.9713C46.355 63.7465 48.7589 61.9047 50.159 61.4487C50.5537 61.3276 50.8893 61.2656 51.1629 61.2656C52.1055 61.2656 52.5779 61.8748 52.5779 63.0918Z" fill="#ED1C24"/>
<path d="M60.6561 69.9834C60.6561 69.6186 60.4737 69.4355 60.1082 69.4355C59.6522 69.4355 58.9825 70.1359 58.1004 71.5352C57.3394 72.7222 56.8685 73.6506 56.6854 74.3189C57.4762 73.9848 58.2977 73.392 59.1499 72.5391C60.1538 71.5659 60.6561 70.7137 60.6561 69.9834ZM65.1292 74.822C65.1292 74.8825 65.0985 74.9737 65.0372 75.0956C64.277 76.2819 63.1356 77.377 61.6144 78.3816C60.002 79.4468 58.5257 79.979 57.1877 79.979C55.2704 79.979 54.312 78.777 54.312 76.3731C54.312 74.7913 54.9968 73.0571 56.3662 71.1704C57.8268 69.1619 59.333 68.158 60.8841 68.158C61.1883 68.158 61.4548 68.2948 61.6828 68.5691C61.9115 68.8427 62.0255 69.132 62.0255 69.4355C62.0255 70.3795 61.3102 71.5203 59.8802 72.859C58.6027 74.0453 57.4306 74.8369 56.3662 75.2324C56.1531 75.9933 56.0463 76.6324 56.0463 77.149C56.0463 78.3973 56.6091 79.0207 57.7349 79.0207C58.8001 79.0207 60.002 78.5797 61.3408 77.6969C62.4965 76.9366 63.4861 76.0695 64.3077 75.0956C64.52 74.7913 64.733 74.6388 64.946 74.6388C65.0679 74.6388 65.1292 74.7001 65.1292 74.822Z" fill="#ED1C24"/>
<path d="M71.9291 69.8465C71.8072 69.8166 71.6704 69.8009 71.518 69.8009C70.301 69.8009 69.0378 70.5768 67.7296 72.1286C65.8736 74.3808 64.9459 76.2212 64.9459 77.6512C64.9459 78.2903 65.1582 78.6095 65.585 78.6095C66.254 78.6095 67.1211 77.9098 68.1863 76.5105C69.6769 74.6238 70.9244 72.4022 71.9291 69.8465ZM69.1446 80.618C67.1368 80.9522 64.7478 81.8193 61.9791 83.2193C59.211 84.618 57.0807 86.018 55.5894 87.4181C53.3073 89.609 52.1666 91.7843 52.1666 93.9445C52.1666 95.1316 52.5399 96.082 53.2852 96.7974C54.0305 97.512 54.9959 97.8697 56.1829 97.8697C58.0696 97.8697 59.9257 97.0781 61.7511 95.4964C63.2117 94.2488 64.5049 92.6514 65.6306 90.7041C67.243 87.966 68.4143 84.603 69.1446 80.618ZM74.0744 69.7097C74.0744 69.8316 73.9369 69.9377 73.6633 70.0289C73.3897 70.1201 73.2066 70.2576 73.1161 70.44C72.9629 71.1091 72.7962 71.885 72.6131 72.7677C72.2483 74.3188 71.716 76.6466 71.0164 79.7502H71.1988C72.8111 79.6896 73.6177 80.0395 73.6177 80.8004C73.6177 80.9828 73.5564 81.074 73.4353 81.074C73.4046 81.074 73.2757 80.9978 73.047 80.846C72.819 80.6935 72.3858 80.618 71.7467 80.618C71.4417 80.618 71.1375 80.633 70.8332 80.6636C69.7075 85.2272 68.2619 88.7718 66.4977 91.2976C63.2117 96.1048 59.7126 98.5088 56.0005 98.5088C54.5399 98.5088 53.3151 98.082 52.3262 97.2313C51.3379 96.3784 50.8428 95.2377 50.8428 93.8077C50.8428 90.5516 53.1555 87.433 57.7803 84.452C61.7055 81.9255 65.5088 80.3736 69.1902 79.7958C69.4033 78.6401 69.7531 76.891 70.2404 74.5476C68.2013 78.1685 66.3908 79.9789 64.8091 79.9789C63.8658 79.9789 63.3941 79.4616 63.3941 78.4271C63.3941 76.8753 64.1543 74.9736 65.6762 72.7221C67.1974 70.4699 68.673 69.1012 70.1029 68.6146C70.6508 68.4016 71.1532 68.2947 71.6092 68.2947C72.0352 68.2947 72.5525 68.4393 73.161 68.7286C73.7694 69.0179 74.0744 69.3442 74.0744 69.7097Z" fill="#ED1C24"/>
<path d="M83.6132 69.8466C83.4906 69.8167 83.3546 69.801 83.2028 69.801C81.9844 69.801 80.7212 70.5769 79.4137 72.1287C77.557 74.3809 76.6293 76.2213 76.6293 77.6513C76.6293 78.2904 76.8424 78.6096 77.2684 78.6096C77.9375 78.6096 78.8046 77.9099 79.8705 76.5106C81.3603 74.6239 82.6086 72.4023 83.6132 69.8466ZM90.3221 74.641C90.3221 74.7942 90.2309 75.0093 90.0485 75.2851C88.709 77.4632 87.4471 78.8597 86.2601 79.4731C85.7122 79.7496 85.165 79.8878 84.6171 79.8878C82.7611 79.8878 81.8327 78.5683 81.8327 75.9292C81.8327 75.4995 81.8619 75.0393 81.9232 74.5476C79.8854 78.1686 78.0743 79.979 76.4925 79.979C75.5492 79.979 75.0782 79.4617 75.0782 78.4272C75.0782 76.8454 75.8377 74.936 77.3603 72.6987C78.8808 70.4629 80.3564 69.1013 81.7871 68.6147C82.3043 68.4017 82.8059 68.2948 83.2933 68.2948C84.3891 68.2948 85.18 68.6753 85.6673 69.4355C85.7578 69.5887 85.8034 69.6948 85.8034 69.7554C85.8034 69.786 85.6965 69.8316 85.4842 69.8922C85.2705 69.9535 85.1187 70.0596 85.0275 70.2114C84.2979 71.3984 83.9324 73.1782 83.9324 75.5516C83.9324 77.7425 84.4034 78.8376 85.3474 78.8376C86.0164 78.8376 86.9676 78.1002 88.1995 76.6246C89.4321 75.1483 90.0941 74.4109 90.1853 74.4109C90.2772 74.4109 90.3221 74.4878 90.3221 74.641Z" fill="#ED1C24"/>
<path d="M122.908 56.7478C122.908 56.1393 122.65 55.8351 122.132 55.8351C121.919 55.8351 121.676 55.8807 121.402 55.9719C118.694 56.9152 116.169 60.4449 113.826 66.5603C115.226 66.0131 117.05 64.5981 119.302 62.316C121.706 59.8514 122.908 57.9961 122.908 56.7478ZM105.337 78.9748C103.815 77.7885 102.309 76.6015 100.818 75.4152C98.3835 73.4979 97.0305 72.5396 96.7562 72.5396C96.0864 72.5396 95.7523 73.1487 95.7523 74.3657C95.7523 75.8256 96.36 77.1344 97.5777 78.2901C98.7946 79.4472 100.133 80.0243 101.594 80.0243C102.902 80.0243 104.15 79.6752 105.337 78.9748ZM124.46 78.4276C124.46 79.9182 123.593 81.0289 121.858 81.7592C120.55 82.2758 119.03 82.5352 117.295 82.5352C114.252 82.5352 110.737 81.5149 106.752 79.4771C104.956 80.6022 103.283 81.1657 101.731 81.1657C99.8748 81.1657 98.2318 80.5338 96.8018 79.2719C95.3718 78.0094 94.6572 76.4647 94.6572 74.6393C94.6572 73.7266 94.8545 72.9207 95.2507 72.2204C95.7366 71.3689 96.4064 70.9421 97.2585 70.9421C98.1712 70.9421 99.753 71.9924 102.005 74.0914C104.805 76.6471 106.371 78.0322 106.706 78.2445C108.258 76.2673 109.794 73.1031 111.315 68.7512C109.916 69.178 108.607 69.3903 107.391 69.3903C106.051 69.3903 104.91 69.1923 103.967 68.794C102.72 68.2133 102.096 67.3412 102.096 66.1784C102.096 64.8945 103.221 63.6248 105.474 62.3701C107.512 61.2394 109.216 60.6729 110.586 60.6729C110.92 60.6729 111.087 60.8105 111.087 61.0862C111.087 61.27 110.92 61.4082 110.586 61.4994C110.25 61.5913 109.703 61.7452 108.942 61.959C105.26 63.2137 103.419 64.5917 103.419 66.0915C103.419 67.5307 104.773 68.2496 107.482 68.2496C108.821 68.2496 110.25 68.0059 111.772 67.5193C112.594 65.146 113.248 63.3818 113.735 62.2248C114.616 60.3081 115.606 58.7264 116.701 57.4781C118.345 55.5309 119.865 54.5569 121.265 54.5569C123.183 54.5569 124.14 55.3791 124.14 57.0221C124.14 58.7563 123.152 60.6729 121.174 62.7727C119.592 64.4157 117.827 65.8008 115.88 66.9258C115.27 67.23 114.343 67.7017 113.096 68.3408C112.212 70.7754 111.483 72.6158 110.905 73.8634C109.87 76.1156 108.835 77.7429 107.801 78.7468C108.927 79.3852 110.449 79.9402 112.366 80.4126C114.283 80.8836 115.91 81.1201 117.249 81.1201C118.709 81.1201 119.987 80.9377 121.082 80.5722C122.635 80.0542 123.411 79.2342 123.411 78.1077C123.411 77.6816 123.19 77.2634 122.749 76.8523C122.307 76.4419 122.087 76.1612 122.087 76.008C122.087 75.765 122.209 75.6432 122.452 75.6432C122.573 75.6432 122.695 75.6888 122.817 75.78C123.912 76.5716 124.46 77.4536 124.46 78.4276Z" fill="#ED1C24"/>
<path d="M132.949 66.2409C132.949 66.6057 132.805 66.9334 132.516 67.222C132.225 67.512 131.883 67.6559 131.489 67.6559C130.758 67.6559 130.393 67.2904 130.393 66.5601C130.393 66.1953 130.537 65.8689 130.827 65.5789C131.116 65.2904 131.458 65.145 131.854 65.145C132.584 65.145 132.949 65.5106 132.949 66.2409ZM136.007 74.5015C136.007 74.7153 135.9 74.9582 135.687 75.2318C132.919 78.914 130.56 80.7544 128.613 80.7544C126.939 80.7544 126.103 79.8566 126.103 78.0619C126.103 77.1492 126.406 75.9016 127.016 74.3191C127.563 72.8585 128.141 71.7178 128.75 70.8963C128.932 70.622 129.145 70.4859 129.389 70.4859C129.663 70.4859 129.914 70.607 130.143 70.8507C130.371 71.0944 130.485 71.3523 130.485 71.6266C130.485 71.7791 130.423 71.9458 130.302 72.1282C128.78 74.5015 128.02 76.4801 128.02 78.0619C128.02 79.157 128.415 79.7049 129.207 79.7049C130.089 79.7049 131.078 79.2183 132.173 78.2443C132.904 77.6052 133.709 76.7231 134.592 75.5974C135.353 74.6241 135.748 74.1367 135.779 74.1367C135.931 74.1367 136.007 74.2586 136.007 74.5015Z" fill="#ED1C24"/>
<path d="M140.479 80.9826C140.479 79.8255 140.357 78.7311 140.114 77.6965C139.383 77.2099 138.768 76.5629 138.266 75.7571C137.763 74.9513 137.542 74.1526 137.604 73.3603C133.982 81.4849 132.172 87.6764 132.172 91.9365C132.172 93.9742 132.659 94.9945 133.633 94.9945C134.028 94.9945 134.469 94.7957 134.956 94.401C136.691 92.9703 138.06 90.9318 139.064 88.2849C140.007 85.8503 140.479 83.4164 140.479 80.9826ZM148.009 56.8845C148.009 57.037 147.964 57.2037 147.873 57.3861C147.599 57.934 146.198 60.0188 143.673 63.639C141.421 66.8338 139.55 69.7857 138.06 72.4932C138.272 72.3108 138.501 72.2196 138.744 72.2196C139.688 72.2196 140.479 73.8626 141.118 77.1486C141.909 77.6053 142.578 77.8333 143.126 77.8333C143.916 77.8333 144.784 77.3545 145.728 76.3962C146.67 75.4372 147.203 74.9577 147.325 74.9577C147.477 74.9577 147.554 75.0489 147.554 75.232C147.554 75.3232 147.507 75.445 147.416 75.5968C145.621 78.1226 144.008 79.3851 142.578 79.3851C142.061 79.3851 141.62 79.2027 141.254 78.8372C141.346 79.4464 141.391 80.0998 141.391 80.8002C141.391 83.234 140.813 85.9116 139.658 88.8328C138.409 91.8752 136.919 94.1423 135.184 95.6329C134.333 96.3326 133.542 96.6831 132.811 96.6831C131.868 96.6831 131.168 96.059 130.712 94.8121C130.377 93.8987 130.21 92.8641 130.21 91.7085C130.21 89.2739 130.94 86.0028 132.4 81.8953C133.587 78.4881 134.956 75.3389 136.509 72.4476C137.573 70.3792 139.201 67.2905 141.391 63.183C142.305 61.4188 142.898 60.3074 143.171 59.8506C143.902 58.5432 144.601 57.5087 145.272 56.747C145.757 56.1998 146.29 55.9262 146.869 55.9262C147.628 55.9262 148.009 56.2454 148.009 56.8845Z" fill="#ED1C24"/>
<path d="M152.528 69.9834C152.528 69.6186 152.345 69.4355 151.98 69.4355C151.524 69.4355 150.854 70.1359 149.972 71.5352C149.211 72.7222 148.74 73.6506 148.557 74.3189C149.348 73.9848 150.169 73.392 151.022 72.5391C152.026 71.5659 152.528 70.7137 152.528 69.9834ZM157 74.822C157 74.8825 156.969 74.9737 156.909 75.0956C156.149 76.2819 155.007 77.377 153.487 78.3816C151.873 79.4468 150.398 79.979 149.059 79.979C147.142 79.979 146.184 78.777 146.184 76.3731C146.184 74.7913 146.868 73.0571 148.238 71.1704C149.698 69.1619 151.205 68.158 152.756 68.158C153.06 68.158 153.326 68.2948 153.554 68.5691C153.783 68.8427 153.897 69.132 153.897 69.4355C153.897 70.3795 153.182 71.5203 151.752 72.859C150.474 74.0453 149.302 74.8369 148.238 75.2324C148.025 75.9933 147.918 76.6324 147.918 77.149C147.918 78.3973 148.481 79.0207 149.606 79.0207C150.672 79.0207 151.873 78.5797 153.212 77.6969C154.368 76.9366 155.358 76.0695 156.179 75.0956C156.392 74.7913 156.605 74.6388 156.818 74.6388C156.939 74.6388 157 74.7001 157 74.822Z" fill="#ED1C24"/>
<path d="M68.0194 42.1614C68.5345 39.6135 68.7012 34.8106 68.7012 34.8106C68.7012 34.8106 68.3671 26.3697 68.7148 18.7645C69.0618 11.1579 69.7978 7.78137 69.7978 7.78137C69.7978 7.78137 71.2883 0.272377 71.6873 0.274513C72.9762 0.280212 74.8964 13.5426 80.5315 14.2031C84.4096 14.6584 86.9005 8.01507 88.3968 3.75007C89.0736 1.81921 89.2767 0.274513 89.7854 0.274513C91.4163 0.274513 91.8809 21.2326 91.8809 21.2326L92.2008 40.0923C92.2008 40.0923 92.4359 51.1959 93.1691 57.733C93.7647 63.0397 92.4566 65.8391 92.4566 67.6296C92.4566 69.4194 90.7402 70.6826 88.1638 70.6826C85.5867 70.6826 84.9362 65.1394 82.1525 64.5765C79.3709 64.0144 76.0471 65.2441 76.0471 65.2441L70.3229 68.0115C70.3229 68.0115 66.9727 69.5448 66.1249 69.3467C65.2777 69.1493 64.9165 67.3674 64.5061 62.2381C64.3251 59.9802 64.204 56.7027 64.9307 53.0875C65.8548 48.4905 67.7308 43.5878 68.0194 42.1614Z" fill="#EBEBEB"/>
<path d="M67.4032 20.9122V24.7291C67.4032 24.7291 61.6983 27.2606 58.3189 33.279C57.1283 35.3994 54.2505 42.0057 55.8252 48.5977C57.3086 54.8056 63.2173 61.0806 63.2173 61.0806L65.0848 69.0342C65.0848 69.0342 53.8658 62.2241 50.9268 51.0023C46.034 32.32 67.4032 20.9122 67.4032 20.9122Z" fill="#0A0909"/>
<path d="M71.0308 22.3162C71.0308 22.3162 71.962 21.1869 73.3578 20.4836C74.1444 20.0875 75.942 19.3999 77.1361 19.7783C78.17 20.1053 78.6488 21.4199 78.8746 22.121C79.5886 24.3375 79.7952 27.5174 79.6555 29.8544C79.4546 33.2216 77.9918 36.3573 76.0118 36.5632C71.7205 37.0086 71.0735 29.3841 70.4907 29.3043C69.9072 29.2245 69.3322 37.1425 69.3322 37.1425C69.3322 37.1425 67.9955 27.8487 68.4964 18.5692C68.9909 9.41574 71.4654 0.566544 71.687 0.274422C72.0667 -0.225754 73.8807 7.15713 78.1885 13.0659C78.9587 14.1218 80.2661 14.3647 81.2358 14.3612C82.2048 14.3576 82.6858 13.9586 83.1254 13.5382C83.5643 13.1179 85.4759 10.1966 87.2885 6.42753C88.8104 3.2612 89.4588 0.000106812 89.7181 0.000106812C90.286 0.000106812 91.696 7.98932 91.9482 13.229C92.3515 16.4025 92.1498 37.8208 92.1498 37.8208C92.1498 37.8208 91.4687 21.2054 90.1349 14.4374C89.7943 12.7125 88.2952 11.4321 88.0658 11.4585C86.9358 11.591 82.7812 19.593 82.7812 19.593C82.7812 19.593 82.0744 20.9339 80.5248 20.3055C78.9751 19.6771 74.3959 12.0819 73.2217 12.2899C72.0482 12.498 71.0308 22.3162 71.0308 22.3162Z" fill="#0A0909"/>
<path d="M91.9481 13.2288C91.6959 7.9891 90.2859 -0.000114441 89.718 -0.000114441C89.4587 -0.000114441 88.8103 3.26098 87.2884 6.42731C85.4758 10.1971 83.5642 13.1184 83.1253 13.5387C82.6857 13.9584 82.2047 14.3574 81.2358 14.3609C80.266 14.3645 78.9586 14.1215 78.1884 13.0656C73.8807 7.15691 72.0666 -0.225262 71.6869 0.2742C71.4653 0.567036 68.9908 9.41552 68.4963 18.5689C67.9954 27.8485 69.3321 37.1423 69.3321 37.1423C69.3321 37.1423 69.9071 29.2243 70.4906 29.3041C70.5227 29.3091 70.5562 29.3405 70.5889 29.3889C70.5868 29.2008 70.5868 29.0127 70.5939 28.8225C70.6702 26.9073 71.114 25.0783 70.9929 23.1489C70.973 22.8304 70.9901 22.5361 71.0364 22.2618C71.1155 21.5194 72.0966 12.4899 73.2216 12.2897C74.3958 12.0817 78.975 19.6776 80.5247 20.3053C82.0751 20.9337 82.7812 19.5928 82.7812 19.5928C82.7812 19.5928 86.9357 11.5915 88.0657 11.459C88.2952 11.4319 89.795 12.7129 90.1348 14.4379C91.4686 21.2059 92.1498 37.8213 92.1498 37.8213C92.1498 37.8213 92.3514 16.403 91.9481 13.2288Z" fill="#ED1C24"/>
<path d="M87.6502 28.6704C87.3331 29.8602 86.5465 30.6839 85.8946 30.51C85.2427 30.3355 84.9712 29.2304 85.2897 28.0405C85.6068 26.8514 86.3919 26.0277 87.0439 26.2016C87.6958 26.3754 87.9673 27.4812 87.6502 28.6704Z" fill="#0A0909"/>
<path d="M76.7968 27.6522C77.0997 28.8457 76.8147 29.9472 76.1606 30.1132C75.5065 30.2792 74.7313 29.4463 74.4285 28.2529C74.1257 27.0587 74.4107 25.9572 75.0648 25.7912C75.7188 25.6259 76.494 26.4588 76.7968 27.6522Z" fill="white"/>
<path d="M80.9921 46.6401L83.8877 42.2383C83.8877 42.2383 83.0855 40.9409 80.9921 40.9259C78.6758 40.9088 77.7489 42.4699 77.7489 42.4699L80.9921 46.6401Z" fill="#ED1C24"/>
<path d="M66.0099 69.3055C65.3601 69.034 65.0188 67.3718 64.6219 65.2115C64.0498 62.0993 64.3113 58.0402 64.3676 57.1418C64.649 52.6901 67.1698 45.2502 67.1698 45.2502C67.1698 45.2502 67.5973 43.5353 68.7744 42.485C69.4961 41.8409 70.2877 41.7925 71.3956 42.485C72.7707 43.3443 72.5648 44.319 72.4979 45.3272C72.3625 47.3834 70.1815 55.6555 70.1815 55.6555C70.1815 55.6555 68.5214 62.8175 69.4861 63.3968C70.4516 63.976 72.7636 63.5713 75.4326 62.856C78.1009 62.1407 80.8761 61.0413 82.9224 60.8482C84.9687 60.6551 86.668 60.8874 86.668 60.8874C86.668 60.8874 85.3178 61.8806 84.6516 62.9173C83.9854 63.954 83.5793 64.9799 83.5793 64.9799C83.5793 64.9799 82.9616 63.4353 79.8337 63.7438C76.7066 64.053 74.0041 65.6746 74.0041 65.6746C74.0041 65.6746 67.4448 69.9054 66.0099 69.3055Z" fill="#ED1C24"/>
<path d="M84.1197 64.9412C84.1197 64.9412 84.6598 63.5512 85.6637 62.4318C86.6676 61.3118 87.9807 61.0802 87.9807 61.0802C87.9807 61.0802 89.0559 61.185 89.8938 61.7357C90.8364 62.3549 91.5631 63.4422 91.7641 63.7443C92.4566 64.7866 92.8022 67.3345 92.4566 67.7984C92.1118 68.2615 91.9572 67.9914 91.9572 67.9914L91.4164 65.7129L91.4556 68.3C91.4556 68.3 91.5325 69.3423 90.4894 69.1877C89.4477 69.0338 89.4513 68.2415 89.3786 67.7064C89.2682 66.8999 89.1 65.9452 89.1 65.9452H88.5593L88.6127 68.5244C88.6127 68.5244 88.8685 70.1923 87.6715 70.0377C86.4745 69.8831 86.2479 68.7061 86.2479 68.7061C86.2479 68.7061 86.7139 67.2048 85.9729 66.4468C85.2319 65.6887 84.1197 64.9412 84.1197 64.9412Z" fill="#0A0909"/>
<path d="M69.9575 40.2576C70.2347 40.1065 80.4155 47.7388 81.2933 47.815C82.1711 47.8905 91.5454 38.3687 91.8732 38.6958C92.2009 39.0235 82.4262 49.3013 81.2427 49.3013C80.0586 49.3013 69.6804 40.4086 69.9575 40.2576Z" fill="#ED1C24"/>
<path d="M93.3245 18.3164V21.9515C93.3245 21.9515 101.602 24.7452 105.334 32.9339C109.067 41.1226 97.6586 59.6411 97.6586 59.6411C97.6586 59.6411 102.553 54.7498 106.089 48.3659C108.682 43.6841 110.544 38.1978 109.207 33.2503C106.045 21.5561 93.3245 18.3164 93.3245 18.3164Z" fill="#0A0909"/>
</svg>
