<svg width="641" height="914" viewBox="0 0 641 914" fill="none" xmlns="http://www.w3.org/2000/svg">
<path stroke-opacity="0.15" d="M133 21L196.354 59M264 98.1502V0M264 98.1502L196.354 59M264 98.1502L327.5 135.547M196.354 59V160.5M196.354 160.5L133 123.923M196.354 160.5L261.927 198.359M327.5 236.217V135.547M327.5 236.217L261.927 198.359M327.5 236.217L449.354 306.648M327.5 135.547L449.354 205.148M261.927 198.359V292M261.927 292L197.463 254.782M261.927 292L323.963 328M133 217.564L197.463 254.782M197.463 254.782V347L133 309.782M133 309.782L323.963 420.035M133 309.782V407.932M323.963 328V420.035M323.963 328L450.463 400.93M323.963 420.035L450.463 493.148M517 244.299V146.148M517 244.299L449.354 205.148M517 244.299L580.5 281.696M449.354 205.148V306.648M449.354 306.648L514.927 344.507M580.5 382.366L639 416.141M580.5 382.366V281.696M580.5 382.366L514.927 344.507M580.5 281.696L639 316.148M514.927 344.507V438.148M514.927 438.148L450.463 400.93M514.927 438.148L576.964 474.148M450.463 400.93V493.148M450.463 493.148L576.964 566.183M576.964 474.148L639 509.782M576.964 474.148V566.183M576.964 566.183L639 602M2 330.782L65.3537 368.782M133 407.932L65.3537 368.782M133 407.932L196.5 445.329M65.3537 368.782V470.282M65.3537 470.282L2 433.705M65.3537 470.282L130.927 508.141M196.5 545.999V445.329M196.5 545.999L130.927 508.141M196.5 545.999L318.354 616.43M196.5 445.329L318.354 514.93M130.927 508.141V601.782M130.927 601.782L66.4634 564.564M130.927 601.782L192.963 637.782M2 527.346L66.4634 564.564M66.4634 564.564V656.782L2 619.564L192.963 729.817M192.963 637.782V729.817M192.963 637.782L319.463 710.712M192.963 729.817L319.463 802.93M386 554.081V455.93M386 554.081L318.354 514.93M386 554.081L449.5 591.478M318.354 514.93V616.43M318.354 616.43L383.927 654.289M449.5 692.148L508 725.923M449.5 692.148V591.478M449.5 692.148L383.927 654.289M449.5 591.478L508 625.93M383.927 654.289V747.93M383.927 747.93L319.463 710.712M383.927 747.93L445.963 783.93M319.463 710.712V802.93M319.463 802.93L445.963 875.965M445.963 783.93L508 819.564M445.963 783.93V875.965M445.963 875.965L508 911.782" stroke="url(#paint0_radial_5_554)" stroke-width="4"/>
<defs>
<radialGradient id="paint0_radial_5_554" cx="0" cy="0" r="1" gradientUnits="userSpaceOnUse" gradientTransform="translate(320.5 455.891) rotate(90) scale(319.609 319.609)">
<stop stop-color="white"/>
<stop offset="1" stop-color="white" stop-opacity="0"/>
</radialGradient>
</defs>
</svg>
